<svg xmlns="http://www.w3.org/2000/svg" viewBox="0 0 120.2 109.2"><style>.st0{fill:none}.st4{fill:#fff}</style><path class="st0" d="M94.2 54.1c-.3-.3-1.6-2.1-2.7-3.5-.4-.6-.9-1.4-1-1.8-.1-.3-.2-.5-.3-1-3-10.3-11.3-18.2-21.7-20.9l-.2-.1c-.5-.3-.9-.7-1-.8-3.1-2.3-6.3-4.9-6.3-5.8 0 .9-3.3 3.5-6.3 5.8-.1.1-.5.4-1 .8-.1.1-.1.1-.2.1-10.4 2.7-18.6 10.6-21.7 20.9-.1.4-.2.6-.3 1-.1.5-.6 1.2-1 1.8-1 1.5-2.4 3.2-2.7 3.5-1.1 1.1-1.7 1.8-2.1 2.1.5.4 1.1 1 2.1 2.1.3.3 1.6 2.1 2.7 3.5.4.6.9 1.4 1 1.8.1.3.2.5.3 1 3 10.3 11.3 18.2 21.7 20.9l.2.1c.5.3.9.7 1 .8 3.1 2.3 6.3 4.9 6.3 5.8 0-.9 3.3-3.5 6.3-5.8.1-.1.5-.4 1-.8.1-.1.1-.1.2-.1 10.4-2.7 18.6-10.6 21.7-20.9.1-.4.2-.6.3-1 .1-.5.6-1.2 1-1.8 1-1.5 2.4-3.2 2.7-3.5 1.1-1.1 1.7-1.8 2.1-2.1l-2.1-2.1z"/><path d="M93.9 50.2c-.6-.8-1.5-2.1-1.6-2.7-.2-.7-.5-1.3-.8-2.2C88 35.5 80 28 69.8 25.2c-.4-.1-.7-.4-.8-.5-3.4-2.2-8-5.7-8-7.8 0 2-4.6 5.5-8 7.8-.1.1-.4.3-.8.5-10.1 2.9-18.1 10.4-21.7 20.1-.3.8-.6 1.4-.8 2.2-.1.6-1 1.9-1.6 2.7-1.8 2.5-3.9 5.1-5.6 5.9 1.6.9 3.8 3.5 5.6 5.9.6.8 1.5 2.1 1.6 2.7.2.7.5 1.3.8 2.2C34 76.7 42 84.2 52.2 87c.4.1.7.4.8.5 3.4 2.2 8 5.7 8 7.8v-.1.1c0-2 4.6-5.5 8-7.8.1-.1.4-.3.8-.5 10.1-2.7 18.1-10.2 21.6-20 .3-.8.6-1.4.8-2.2.1-.6 1-1.9 1.6-2.7 1.8-2.5 3.9-5.1 5.6-5.9-1.6-.9-3.7-3.5-5.5-6z" opacity=".8" fill="#00000a"/><path d="M94.3 56.2c-1.8 0-5.2-4.5-7.1-7.3-2.6-9.2-9.8-16.4-19-18.9-2.8-1.9-7.2-5-7.2-6.8 0 1.7-4.3 4.9-7.2 6.8-9.3 2.5-16.6 9.9-19.1 19.2-1.9 2.8-5 7-6.7 7 1.7 0 4.8 4.1 6.7 7 2.5 9.5 10.1 17 19.7 19.4 2.8 2 6.6 4.9 6.6 6.6 0-1.7 3.8-4.6 6.6-6.6 9.5-2.4 17-9.7 19.6-19.1 1.9-2.9 5.3-7.3 7.1-7.3zM61 26.2c0 .7 1.6 1.9 3.2 3-1-.2-2.1-.2-3.2-.2s-2.1.1-3.1.2c1.6-1.1 3.1-2.3 3.1-3zm-29.9 30c.7 0 1.8-1.4 2.9-3-.1 1-.2 2-.2 3s.1 2 .2 3c-1.1-1.6-2.2-3-2.9-3zM61 86c0-.7-1.3-1.7-2.7-2.7.9.1 1.8.1 2.7.1s1.8 0 2.7-.1c-1.4.9-2.7 2-2.7 2.7zm7.4-5.4h-.3s-.1.1-.4.2c-2.1.6-4.4.9-6.7.9s-4.6-.3-6.7-.9l-.4-.2h-.3c-10.5-3.2-18.1-12.9-18.1-24.4 0-14.1 11.4-25.5 25.5-25.5s25.5 11.4 25.5 25.5c0 11.5-7.6 21.2-18.1 24.4zM88 59.5c.1-1.1.2-2.2.2-3.3s-.1-2.3-.2-3.3c1.1 1.7 2.4 3.3 3.2 3.3-.8 0-2.1 1.6-3.2 3.3z" opacity=".4" fill-rule="evenodd" clip-rule="evenodd" fill="#fff"/><path class="st0" d="M94.2 54.1c-.3-.3-1.6-2.1-2.7-3.5-.4-.6-.9-1.4-1-1.8-.1-.3-.2-.5-.3-1-3-10.3-11.3-18.2-21.7-20.9l-.2-.1c-.5-.3-.9-.7-1-.8-3.1-2.3-6.3-4.9-6.3-5.8 0 .9-3.3 3.5-6.3 5.8-.1.1-.5.4-1 .8-.1.1-.1.1-.2.1-10.4 2.7-18.6 10.6-21.7 20.9-.1.4-.2.6-.3 1-.1.5-.6 1.2-1 1.8-1 1.5-2.4 3.2-2.7 3.5-1.1 1.1-1.7 1.8-2.1 2.1.5.4 1.1 1 2.1 2.1.3.3 1.6 2.1 2.7 3.5.4.6.9 1.4 1 1.8.1.3.2.5.3 1 3 10.3 11.3 18.2 21.7 20.9l.2.1c.5.3.9.7 1 .8 3.1 2.3 6.3 4.9 6.3 5.8 0-.9 3.3-3.5 6.3-5.8.1-.1.5-.4 1-.8.1-.1.1-.1.2-.1 10.4-2.7 18.6-10.6 21.7-20.9.1-.4.2-.6.3-1 .1-.5.6-1.2 1-1.8 1-1.5 2.4-3.2 2.7-3.5 1.1-1.1 1.7-1.8 2.1-2.1l-2.1-2.1z"/><path class="st4" d="M93.9 50.2c-.6-.8-1.5-2.1-1.6-2.7-.2-.7-.5-1.3-.8-2.2C88 35.5 80 28 69.8 25.2c-.4-.1-.7-.4-.8-.5-3.4-2.2-8-5.7-8-7.8 0 2-4.6 5.5-8 7.8-.1.1-.4.3-.8.5-10.1 2.9-18.1 10.4-21.7 20.1-.3.8-.6 1.4-.8 2.2-.1.6-1 1.9-1.6 2.7-1.8 2.5-3.9 5.1-5.6 5.9 1.6.9 3.8 3.5 5.6 5.9.6.8 1.5 2.1 1.6 2.7.2.7.5 1.3.8 2.2C34 76.7 42 84.2 52.2 87c.4.1.7.4.8.5 3.4 2.2 8 5.7 8 7.8v-.1.1c0-2 4.6-5.5 8-7.8.1-.1.4-.3.8-.5 10.1-2.7 18.1-10.2 21.6-20 .3-.8.6-1.4.8-2.2.1-.6 1-1.9 1.6-2.7 1.8-2.5 3.9-5.1 5.6-5.9-1.6-.9-3.7-3.5-5.5-6zm.3 8.1c-.3.3-1.6 2.1-2.7 3.5-.4.6-.9 1.4-1 1.8-.1.3-.2.5-.3 1-3 10.3-11.3 18.2-21.7 20.9l-.2.1c-.5.3-.9.7-1 .8-3.1 2.3-6.3 4.9-6.3 5.8 0-.9-3.3-3.5-6.3-5.8-.1-.1-.5-.4-1-.8-.1-.1-.1-.1-.2-.1-10.4-2.7-18.6-10.6-21.7-20.9-.1-.4-.2-.6-.3-1-.1-.5-.6-1.2-1-1.8-1-1.5-2.4-3.2-2.7-3.5-1.1-1.1-1.7-1.8-2.1-2.1.5-.4 1.1-1 2.1-2.1.3-.3 1.6-2.1 2.7-3.5.4-.6.9-1.4 1-1.8.1-.3.2-.5.3-1 3-10.3 11.3-18.2 21.7-20.9l.2-.1c.5-.3.9-.7 1-.8 3.1-2.3 6.3-4.9 6.3-5.8 0 .9 3.3 3.5 6.3 5.8.1.1.5.4 1 .8.1.1.1.1.2.1 10.4 2.7 18.6 10.6 21.7 20.9.1.4.2.6.3 1 .1.5.6 1.2 1 1.8 1 1.5 2.4 3.2 2.7 3.5 1.1 1.1 1.7 1.8 2.1 2.1-.4.3-1 1-2.1 2.1z"/><path class="st4" d="M57.5 50.7l9.8 5.4-9.8 5.4V50.7m-3-5.1v21l19-10.5-19-10.5z"/></svg>